<?xml version="1.0" encoding="UTF-8" standalone="no"?>
<!-- Created with Inkscape (http://www.inkscape.org/) -->

<svg
   width="512"
   height="512"
   viewBox="0 0 512 512"
   version="1.1"
   id="svg5"
   xml:space="preserve"
   inkscape:version="1.2.1 (9c6d41e410, 2022-07-14)"
   sodipodi:docname="drawing.colors2.svg"
   inkscape:export-filename="../icon.svg"
   inkscape:export-xdpi="96"
   inkscape:export-ydpi="96"
   xmlns:inkscape="http://www.inkscape.org/namespaces/inkscape"
   xmlns:sodipodi="http://sodipodi.sourceforge.net/DTD/sodipodi-0.dtd"
   xmlns:xlink="http://www.w3.org/1999/xlink"
   xmlns="http://www.w3.org/2000/svg"
   xmlns:svg="http://www.w3.org/2000/svg"><sodipodi:namedview
     id="namedview7"
     pagecolor="#ffffff"
     bordercolor="#666666"
     borderopacity="1.0"
     inkscape:showpageshadow="2"
     inkscape:pageopacity="0.0"
     inkscape:pagecheckerboard="0"
     inkscape:deskcolor="#d1d1d1"
     inkscape:document-units="px"
     showgrid="false"
     inkscape:zoom="1.3037281"
     inkscape:cx="170.2809"
     inkscape:cy="251.20269"
     inkscape:window-width="2019"
     inkscape:window-height="1225"
     inkscape:window-x="3030"
     inkscape:window-y="273"
     inkscape:window-maximized="0"
     inkscape:current-layer="layer1" /><defs
     id="defs2"><linearGradient
       inkscape:collect="always"
       id="linearGradient8198"><stop
         style="stop-color:#8142ef;stop-opacity:1;"
         offset="0.14554794"
         id="stop8194" /><stop
         style="stop-color:#e11d48;stop-opacity:1;"
         offset="0.85273975"
         id="stop8196" /></linearGradient><inkscape:path-effect
       effect="fillet_chamfer"
       id="path-effect701-6-1"
       is_visible="true"
       lpeversion="1"
       nodesatellites_param="F,1,0,1,0,0.72801936,0,1 @ F,1,0,1,0,0,0,1 @ F,1,0,1,0,0.72801936,0,1 @ F,1,0,1,0,0,0,1"
       unit="px"
       method="auto"
       mode="F"
       radius="135"
       chamfer_steps="1"
       flexible="true"
       use_knot_distance="true"
       apply_no_radius="true"
       apply_with_radius="true"
       only_selected="false"
       hide_knots="false" /><inkscape:path-effect
       effect="fillet_chamfer"
       id="path-effect701-6"
       is_visible="true"
       lpeversion="1"
       nodesatellites_param="F,1,0,1,0,0.47742262,0,1 @ F,1,0,1,0,0,0,1 @ F,1,0,1,0,0.47742262,0,1 @ F,1,0,1,0,0,0,1"
       unit="px"
       method="auto"
       mode="F"
       radius="135"
       chamfer_steps="1"
       flexible="true"
       use_knot_distance="true"
       apply_no_radius="true"
       apply_with_radius="true"
       only_selected="false"
       hide_knots="false" /><inkscape:path-effect
       effect="fillet_chamfer"
       id="path-effect701"
       is_visible="true"
       lpeversion="1"
       nodesatellites_param="F,1,0,1,0,0.35956376,0,1 @ F,1,0,1,0,0,0,1 @ F,1,0,1,0,0.35956376,0,1 @ F,1,0,1,0,0,0,1"
       unit="px"
       method="auto"
       mode="F"
       radius="135"
       chamfer_steps="1"
       flexible="true"
       use_knot_distance="true"
       apply_no_radius="true"
       apply_with_radius="true"
       only_selected="false"
       hide_knots="false" /><linearGradient
       inkscape:collect="always"
       xlink:href="#linearGradient8198"
       id="linearGradient8200"
       x1="0"
       y1="256"
       x2="512"
       y2="256"
       gradientUnits="userSpaceOnUse" /><rect
       x="14.101695"
       y="296.67798"
       width="401.89832"
       height="118.77966"
       id="rect356-7" /></defs><g
     inkscape:label="Layer 1"
     inkscape:groupmode="layer"
     id="layer1"><rect
       style="opacity:0.6;fill:url(#linearGradient8200);fill-opacity:1;stroke:#ff0000;stroke-width:0;stroke-linecap:round;stroke-linejoin:round"
       id="rect8169"
       width="512"
       height="512"
       x="5e-07"
       y="5e-07" /><g
       aria-label="total app"
       transform="matrix(1.25,0,0,1.25,26.77888,-69.108273)"
       id="text354-6"
       style="font-size:25.9093px;line-height:1.25;font-family:Arial;-inkscape-font-specification:'Arial, Normal';letter-spacing:0px;word-spacing:0px;white-space:pre;shape-inside:url(#rect356-7);display:inline;fill:#ffffff"><path
         d="m 44.231576,351.70455 c -1.61,0.92 -3.910001,1.53333 -5.596669,1.53333 -3.220001,0 -5.136669,-1.61 -5.136669,-5.59667 v -13.34 H 44.84491 v -9.73667 H 33.498238 V 313.21787 H 21.231566 v 11.34667 h -6.97667 v 9.73667 h 6.97667 v 14.56667 c 0,10.12001 5.750002,15.33334 15.33334,15.33334 4.370002,0 7.513337,-1.22666 10.503338,-2.83667 z"
         style="font-weight:bold;font-size:76.6667px;font-family:'Galano Grotesque DEMO';-inkscape-font-specification:'Galano Grotesque DEMO, Bold'"
         id="path554" /><path
         d="m 69.761616,323.56787 c -11.653339,0 -21.313344,8.12667 -21.313344,20.24001 0,12.19001 9.660005,20.31668 21.313344,20.31668 11.423338,0 21.083343,-8.12667 21.083343,-20.31668 0,-12.11334 -9.660005,-20.24001 -21.083343,-20.24001 z m 0,30.20668 c -4.983336,0 -9.506672,-3.91 -9.506672,-9.96667 0,-5.98 4.523336,-9.96667 9.506672,-9.96667 4.753335,0 9.276671,3.98667 9.276671,9.96667 0,6.05667 -4.523336,9.96667 -9.276671,9.96667 z"
         style="font-weight:bold;font-size:76.6667px;font-family:'Galano Grotesque DEMO';-inkscape-font-specification:'Galano Grotesque DEMO, Bold'"
         id="path556" /><path
         d="m 122.89169,351.70455 c -1.61,0.92 -3.91,1.53333 -5.59667,1.53333 -3.22,0 -5.13667,-1.61 -5.13667,-5.59667 v -13.34 h 11.34667 v -9.73667 H 112.15835 V 313.21787 H 99.891676 v 11.34667 h -6.97667 v 9.73667 h 6.97667 v 14.56667 c 0,10.12001 5.750004,15.33334 15.333344,15.33334 4.37,0 7.51333,-1.22666 10.50333,-2.83667 z"
         style="font-weight:bold;font-size:76.6667px;font-family:'Galano Grotesque DEMO';-inkscape-font-specification:'Galano Grotesque DEMO, Bold'"
         id="path558" /><path
         d="m 170.11841,324.56454 h -12.26668 v 3.06667 c -2.99,-2.68334 -6.97667,-4.21667 -11.96,-4.21667 -10.19667,0 -18.78334,8.28 -18.78334,20.39334 0,12.19001 8.58667,20.39334 18.78334,20.39334 4.98333,0 8.97,-1.53333 11.96,-4.21667 v 3.06667 h 12.26668 z m -21.69668,29.21001 c -5.36667,0 -9.27667,-3.98667 -9.27667,-9.96667 0,-5.90334 3.91,-9.96667 9.27667,-9.96667 4.98334,0 9.43,4.06333 9.43,9.96667 0,5.98 -4.44666,9.96667 -9.43,9.96667 z"
         style="font-weight:bold;font-size:76.6667px;font-family:'Galano Grotesque DEMO';-inkscape-font-specification:'Galano Grotesque DEMO, Bold'"
         id="path560" /><path
         d="M 191.27834,363.05122 V 307.8512 h -12.26667 v 55.20002 z"
         style="font-weight:bold;font-size:76.6667px;font-family:'Galano Grotesque DEMO';-inkscape-font-specification:'Galano Grotesque DEMO, Bold'"
         id="path562" /><path
         d="m 258.43833,324.56454 h -12.26667 v 3.06667 c -2.99,-2.68334 -6.97667,-4.21667 -11.96001,-4.21667 -10.19667,0 -18.78334,8.28 -18.78334,20.39334 0,12.19001 8.58667,20.39334 18.78334,20.39334 4.98334,0 8.97001,-1.53333 11.96001,-4.21667 v 3.06667 h 12.26667 z m -21.69668,29.21001 c -5.36667,0 -9.27667,-3.98667 -9.27667,-9.96667 0,-5.90334 3.91,-9.96667 9.27667,-9.96667 4.98334,0 9.43001,4.06333 9.43001,9.96667 0,5.98 -4.44667,9.96667 -9.43001,9.96667 z"
         style="font-weight:bold;font-size:76.6667px;font-family:'Galano Grotesque DEMO';-inkscape-font-specification:'Galano Grotesque DEMO, Bold'"
         id="path564" /><path
         d="m 291.55828,323.41454 c -4.98334,0 -8.97,1.53333 -11.96001,4.21667 v -3.06667 H 267.3316 v 51.52002 h 12.26667 v -16.10001 c 2.99001,2.68334 6.97667,4.21667 11.96001,4.21667 10.19667,0 18.78334,-8.20333 18.78334,-20.39334 0,-12.11334 -8.58667,-20.39334 -18.78334,-20.39334 z m -2.53,30.36001 c -4.98334,0 -9.43001,-3.98667 -9.43001,-9.96667 0,-5.90334 4.44667,-9.96667 9.43001,-9.96667 5.36667,0 9.27667,4.06333 9.27667,9.96667 0,5.98 -3.91,9.96667 -9.27667,9.96667 z"
         style="font-weight:bold;font-size:76.6667px;font-family:'Galano Grotesque DEMO';-inkscape-font-specification:'Galano Grotesque DEMO, Bold'"
         id="path566" /><path
         d="m 340.93156,323.41454 c -4.98334,0 -8.97001,1.53333 -11.96001,4.21667 v -3.06667 h -12.26667 v 51.52002 h 12.26667 v -16.10001 c 2.99,2.68334 6.97667,4.21667 11.96001,4.21667 10.19667,0 18.78334,-8.20333 18.78334,-20.39334 0,-12.11334 -8.58667,-20.39334 -18.78334,-20.39334 z m -2.53001,30.36001 c -4.98333,0 -9.43,-3.98667 -9.43,-9.96667 0,-5.90334 4.44667,-9.96667 9.43,-9.96667 5.36667,0 9.27668,4.06333 9.27668,9.96667 0,5.98 -3.91001,9.96667 -9.27668,9.96667 z"
         style="font-weight:bold;font-size:76.6667px;font-family:'Galano Grotesque DEMO';-inkscape-font-specification:'Galano Grotesque DEMO, Bold'"
         id="path568" /></g><g
       id="g5138"
       transform="matrix(1.25,0,0,1.25,-453.42858,-123.00782)"><g
         id="g5132"><path
           style="opacity:1;fill:#e11d48;fill-opacity:1;stroke:#ff0000;stroke-width:0;stroke-linecap:round;stroke-linejoin:round"
           id="rect699"
           width="99.339127"
           height="99.339127"
           x="159.82198"
           y="545.99146"
           sodipodi:type="rect"
           d="m 195.54073,545.99146 h 63.62037 v 63.62037 a 35.71875,35.71875 135 0 1 -35.71875,35.71875 H 159.82198 V 581.7102 a 35.71875,35.71875 135 0 1 35.71875,-35.71874 z"
           inkscape:path-effect="#path-effect701"
           transform="rotate(-45)" /><path
           style="opacity:1;fill:#8142ef;fill-opacity:1;stroke:#ff0000;stroke-width:0;stroke-linecap:round;stroke-linejoin:round"
           id="rect699-0"
           width="74.815788"
           height="74.815788"
           x="159.82198"
           y="570.51477"
           sodipodi:type="rect"
           d="m 195.54073,570.51477 h 39.09703 v 39.09704 a 35.71875,35.71875 135 0 1 -35.71875,35.71875 h -39.09703 v -39.09704 a 35.71875,35.71875 135 0 1 35.71875,-35.71875 z"
           inkscape:path-effect="#path-effect701-6"
           transform="rotate(-45)" /><path
           style="opacity:1;fill:#ffff00;fill-opacity:1;stroke:#ff0000;stroke-width:0;stroke-linecap:round;stroke-linejoin:round"
           id="rect699-0-9"
           width="49.062912"
           height="49.062912"
           x="159.82198"
           y="596.2677"
           sodipodi:type="rect"
           d="m 195.54073,596.2677 h 13.34416 v 13.34416 a 35.71875,35.71875 135 0 1 -35.71875,35.71875 h -13.34416 v -13.34416 a 35.71875,35.71875 135 0 1 35.71875,-35.71875 z"
           inkscape:path-effect="#path-effect701-6-1"
           transform="rotate(-45)" /></g></g></g></svg>
