<?xml version="1.0" encoding="UTF-8" standalone="no"?>
<!-- Created with Inkscape (http://www.inkscape.org/) -->

<svg
   width="48"
   height="48"
   viewBox="0 0 48.000001 48.000001"
   version="1.1"
   id="svg7924"
   xmlns="http://www.w3.org/2000/svg"
   xmlns:svg="http://www.w3.org/2000/svg">
  <defs
     id="defs7921" />
  <g
     id="layer1"
     transform="translate(-7.2942317,-106.28707)">
    <g
       id="g7450"
       transform="matrix(0.18710486,-0.18710486,0.18710486,0.18710486,-15.43792,144.4592)">
      <path
         style="opacity:1;fill:#e11d48;fill-opacity:1;stroke:#ff0000;stroke-width:0;stroke-linecap:round;stroke-linejoin:round"
         id="rect699"
         width="124.16316"
         height="124.16316"
         x="100.67283"
         y="24.928511"
         d="m 136.39158,24.928511 h 88.44441 v 88.444409 a 35.718749,35.718749 135 0 1 -35.71875,35.71875 H 100.67283 V 60.64726 a 35.718749,35.718749 135 0 1 35.71875,-35.718749 z" />
      <path
         style="opacity:1;fill:#8142ef;fill-opacity:1;stroke:#ff0000;stroke-width:0;stroke-linecap:round;stroke-linejoin:round"
         id="rect699-0"
         width="93.511642"
         height="93.511642"
         x="100.67283"
         y="55.580036"
         d="m 136.39158,55.580036 h 57.79289 v 57.792894 a 35.71875,35.71875 135 0 1 -35.71875,35.71875 H 100.67283 V 91.298786 a 35.71875,35.71875 135 0 1 35.71875,-35.71875 z" />
      <path
         style="opacity:1;fill:#ffff00;fill-opacity:1;stroke:#ff0000;stroke-width:0;stroke-linecap:round;stroke-linejoin:round"
         id="rect699-0-9"
         width="61.32333"
         height="61.32333"
         x="100.67283"
         y="87.768341"
         d="m 136.39158,87.768341 h 25.60458 v 25.604579 a 35.71875,35.71875 135 0 1 -35.71875,35.71875 h -25.60458 v -25.60458 a 35.71875,35.71875 135 0 1 35.71875,-35.718749 z" />
    </g>
  </g>
</svg>
