<svg xmlns="http://www.w3.org/2000/svg"
    xmlns:xlink="http://www.w3.org/1999/xlink" xml:space="preserve" width="512" height="512">
    <defs>
        <path id="c" d="M14.102 296.678H416v118.78H14.102z"/>
    </defs>
    <path d="M0 0h512v512H0z" style="opacity:.6;fill:url(#b);fill-opacity:1;stroke:red;stroke-width:0;stroke-linecap:round;stroke-linejoin:round"/>
    <g aria-label="total app" style="font-size:25.9093px;line-height:1.25;font-family:Arial;-inkscape-font-specification:&quot;Arial, Normal&quot;;letter-spacing:0;word-spacing:0;white-space:pre;shape-inside:url(#c);display:inline;fill:#fff" transform="matrix(1.25 0 0 1.25 26.779 -69.108)">
        <path d="M44.232 351.705c-1.61.92-3.91 1.533-5.597 1.533-3.22 0-5.137-1.61-5.137-5.597v-13.34h11.347v-9.736H33.498v-11.347H21.232v11.347h-6.977v9.736h6.977v14.567c0 10.12 5.75 15.333 15.333 15.333 4.37 0 7.513-1.226 10.503-2.836zM69.762 323.568c-11.654 0-21.314 8.127-21.314 20.24 0 12.19 9.66 20.317 21.314 20.317 11.423 0 21.083-8.127 21.083-20.317 0-12.113-9.66-20.24-21.083-20.24zm0 30.207c-4.984 0-9.507-3.91-9.507-9.967 0-5.98 4.523-9.967 9.507-9.967 4.753 0 9.276 3.987 9.276 9.967 0 6.057-4.523 9.967-9.276 9.967zM122.892 351.705c-1.61.92-3.91 1.533-5.597 1.533-3.22 0-5.137-1.61-5.137-5.597v-13.34h11.347v-9.736h-11.347v-11.347H99.892v11.347h-6.977v9.736h6.977v14.567c0 10.12 5.75 15.333 15.333 15.333 4.37 0 7.513-1.226 10.503-2.836zM170.118 324.565h-12.266v3.066c-2.99-2.683-6.977-4.216-11.96-4.216-10.197 0-18.784 8.28-18.784 20.393 0 12.19 8.587 20.393 18.784 20.393 4.983 0 8.97-1.533 11.96-4.216v3.066h12.266zm-21.696 29.21c-5.367 0-9.277-3.987-9.277-9.967 0-5.903 3.91-9.967 9.277-9.967 4.983 0 9.43 4.064 9.43 9.967 0 5.98-4.447 9.967-9.43 9.967zM191.278 363.051v-55.2h-12.266v55.2zM258.438 324.565h-12.266v3.066c-2.99-2.683-6.977-4.216-11.96-4.216-10.197 0-18.784 8.28-18.784 20.393 0 12.19 8.587 20.393 18.784 20.393 4.983 0 8.97-1.533 11.96-4.216v3.066h12.266zm-21.696 29.21c-5.367 0-9.277-3.987-9.277-9.967 0-5.903 3.91-9.967 9.277-9.967 4.983 0 9.43 4.064 9.43 9.967 0 5.98-4.447 9.967-9.43 9.967zM291.558 323.415c-4.983 0-8.97 1.533-11.96 4.216v-3.066h-12.266v51.52h12.266v-16.1c2.99 2.683 6.977 4.216 11.96 4.216 10.197 0 18.784-8.203 18.784-20.393 0-12.113-8.587-20.393-18.784-20.393zm-2.53 30.36c-4.983 0-9.43-3.987-9.43-9.967 0-5.903 4.447-9.967 9.43-9.967 5.367 0 9.277 4.064 9.277 9.967 0 5.98-3.91 9.967-9.277 9.967zM340.932 323.415c-4.984 0-8.97 1.533-11.96 4.216v-3.066h-12.267v51.52h12.267v-16.1c2.99 2.683 6.976 4.216 11.96 4.216 10.196 0 18.783-8.203 18.783-20.393 0-12.113-8.587-20.393-18.783-20.393zm-2.53 30.36c-4.984 0-9.43-3.987-9.43-9.967 0-5.903 4.446-9.967 9.43-9.967 5.366 0 9.276 4.064 9.276 9.967 0 5.98-3.91 9.967-9.276 9.967z" style="font-weight:700;font-size:76.6667px;font-family:&quot;Galano Grotesque DEMO&quot;;-inkscape-font-specification:&quot;Galano Grotesque DEMO, Bold&quot;"/>
    </g>
    <path d="M195.54 545.991h63.621v63.62a35.719 35.719 135 0 1-35.719 35.72h-63.62v-63.62a35.719 35.719 135 0 1 35.719-35.72z" style="opacity:1;fill:#e11d48;fill-opacity:1;stroke:red;stroke-width:0;stroke-linecap:round;stroke-linejoin:round" transform="rotate(-45 -375.198 485.833) scale(1.25)"/>
    <path d="M195.54 570.515h39.098v39.097a35.719 35.719 135 0 1-35.719 35.719h-39.097v-39.097a35.719 35.719 135 0 1 35.719-35.72z" style="opacity:1;fill:#8142ef;fill-opacity:1;stroke:red;stroke-width:0;stroke-linecap:round;stroke-linejoin:round" transform="rotate(-45 -375.198 485.833) scale(1.25)"/>
    <path d="M195.54 596.268h13.345v13.344a35.719 35.719 135 0 1-35.719 35.719h-13.344v-13.345a35.719 35.719 135 0 1 35.719-35.718z" style="opacity:1;fill:#ff0;fill-opacity:1;stroke:red;stroke-width:0;stroke-linecap:round;stroke-linejoin:round" transform="rotate(-45 -375.198 485.833) scale(1.25)"/>
</svg>
