<svg xmlns="http://www.w3.org/2000/svg" width="48" height="48"><path d="M136.392 24.929h88.444v88.444a35.72 35.72 135 0 1-35.719 35.719h-88.444V60.647a35.72 35.72 135 0 1 35.719-35.718" style="opacity:1;fill:#e11d48;fill-opacity:1;stroke:red;stroke-width:0;stroke-linecap:round;stroke-linejoin:round" transform="rotate(-45 34.711 46.525)scale(.2646)"/><path d="M136.392 55.58h57.792v57.793a35.72 35.72 135 0 1-35.718 35.719h-57.793V91.299a35.72 35.72 135 0 1 35.719-35.719" style="opacity:1;fill:#8142ef;fill-opacity:1;stroke:red;stroke-width:0;stroke-linecap:round;stroke-linejoin:round" transform="rotate(-45 34.711 46.525)scale(.2646)"/><path d="M136.392 87.768h25.604v25.605a35.72 35.72 135 0 1-35.719 35.719h-25.604v-25.605a35.72 35.72 135 0 1 35.719-35.719" style="opacity:1;fill:#ff0;fill-opacity:1;stroke:red;stroke-width:0;stroke-linecap:round;stroke-linejoin:round" transform="rotate(-45 34.711 46.525)scale(.2646)"/></svg>